<svg xmlns="http://www.w3.org/2000/svg" version="1.1" xmlns:xlink="http://www.w3.org/1999/xlink" xmlns:svgjs="http://svgjs.dev/svgjs" width="1920" height="1080" preserveAspectRatio="none" viewBox="0 0 1920 1080">
    <g mask="url(&quot;#SvgjsMask1039&quot;)" fill="none">
        <rect width="1920" height="1080" x="0" y="0" fill="rgba(154, 122, 90, 1)"></rect>
        <path d="M 0,242 C 128,259.2 384,363.6 640,328 C 896,292.4 1024,59 1280,64 C 1536,69 1792,295.2 1920,353L1920 1080L0 1080z" fill="rgba(142, 106, 70, 1)"></path>
        <path d="M 0,766 C 96,781.6 288,844 480,844 C 672,844 768,763.4 960,766 C 1152,768.6 1248,862.6 1440,857 C 1632,851.4 1824,761.8 1920,738L1920 1080L0 1080z" fill="rgba(129, 89, 49, 1)"></path>
    </g>
    <defs>
        <mask id="SvgjsMask1039">
            <rect width="1920" height="1080" fill="#ffffff"></rect>
        </mask>
    </defs>
</svg>